<svg width="55" height="65" viewBox="0 0 55 65" fill="none" xmlns="http://www.w3.org/2000/svg">
<path d="M11.7857 11.8184C11.7857 8.68398 13.4413 5.67792 16.3883 3.46153C19.3353 1.24515 23.3323 0 27.5 0C31.6677 0 35.6647 1.24515 38.6117 3.46153C41.5587 5.67792 43.2143 8.68398 43.2143 11.8184V27.3449C48.0189 29.8609 51.6304 33.4646 53.5232 37.6312C55.4159 41.7979 55.4912 46.3101 53.738 50.5112C51.9848 54.7123 48.4947 58.3829 43.7755 60.9888C39.0564 63.5948 33.3546 65 27.5 65C21.6454 65 15.9436 63.5948 11.2245 60.9888C6.50533 58.3829 3.01517 54.7123 1.26198 50.5112C-0.49122 46.3101 -0.415946 41.7979 1.47684 37.6312C3.36963 33.4646 6.98113 29.8609 11.7857 27.3449V11.8184ZM16.28 32.1904C12.8471 33.9871 10.2663 36.5609 8.91336 39.5372C7.56039 42.5136 7.50587 45.7369 8.75773 48.7382C10.0096 51.7394 12.5025 54.3618 15.8735 56.2236C19.2445 58.0853 23.3177 59.0893 27.5 59.0893C31.6823 59.0893 35.7555 58.0853 39.1265 56.2236C42.4975 54.3618 44.9904 51.7394 46.2423 48.7382C47.4941 45.7369 47.4396 42.5136 46.0866 39.5372C44.7337 36.5609 42.1529 33.9871 38.72 32.1904L35.3571 30.4265V11.8184C35.3571 10.2512 34.5293 8.74817 33.0558 7.63998C31.5823 6.53178 29.5838 5.90921 27.5 5.90921C25.4162 5.90921 23.4177 6.53178 21.9442 7.63998C20.4707 8.74817 19.6429 10.2512 19.6429 11.8184V30.4265L16.28 32.1904ZM23.5714 32.8729V11.8184H31.4286V32.8729C35.1233 33.599 38.3405 35.3116 40.4792 37.6909C42.618 40.0703 43.5321 42.9538 43.051 45.8029C42.5699 48.6521 40.7264 51.2722 37.8647 53.1739C35.003 55.0757 31.3188 56.1291 27.5 56.1375C23.6725 56.1403 19.9753 55.0925 17.1021 53.1906C14.229 51.2888 12.3776 48.6637 11.8954 45.8081C11.4132 42.9524 12.3333 40.0626 14.4831 37.681C16.6329 35.2994 19.8645 33.5897 23.5714 32.8729ZM27.5 50.2283C29.5838 50.2283 31.5823 49.6057 33.0558 48.4975C34.5293 47.3893 35.3571 45.8863 35.3571 44.3191C35.3571 42.7518 34.5293 41.2488 33.0558 40.1406C31.5823 39.0324 29.5838 38.4099 27.5 38.4099C25.4162 38.4099 23.4177 39.0324 21.9442 40.1406C20.4707 41.2488 19.6429 42.7518 19.6429 44.3191C19.6429 45.8863 20.4707 47.3893 21.9442 48.4975C23.4177 49.6057 25.4162 50.2283 27.5 50.2283Z" fill="white"/>
</svg>
