<svg width="72" height="63" viewBox="0 0 72 63" fill="none" xmlns="http://www.w3.org/2000/svg">
<path d="M33.1184 26.4745C40.5124 26.4745 46.5065 20.7718 46.5065 13.7372C46.5065 6.70261 40.5124 0.999939 33.1184 0.999939C25.7244 0.999939 19.7303 6.70261 19.7303 13.7372" stroke="white" stroke-width="1.36222" stroke-linecap="round"/>
<path d="M6.34406 26.4754H33.1202" stroke="white" stroke-width="1.36222" stroke-linecap="round"/>
<path d="M9.05347 46.856H46.54" stroke="white" stroke-width="1.36222" stroke-linecap="round"/>
<path d="M38.5107 54.4984C38.5107 58.7191 42.1072 62.1407 46.5436 62.1407C50.98 62.1407 54.5764 58.7191 54.5764 54.4984C54.5764 50.2776 50.98 46.856 46.5436 46.856" stroke="white" stroke-width="1.36222" stroke-linecap="round"/>
<path d="M57.2289 36.6688C64.6229 36.6688 70.6169 30.9661 70.6169 23.9315C70.6169 16.8969 64.6229 11.1943 57.2289 11.1943C56.4355 11.1943 55.6582 11.2599 54.9027 11.3859" stroke="white" stroke-width="1.36222" stroke-linecap="round"/>
<path d="M1 36.666H57.2299" stroke="white" stroke-width="1.36222" stroke-linecap="round"/>
</svg>
