<svg width="60" height="55" viewBox="0 0 60 55" fill="none" xmlns="http://www.w3.org/2000/svg">
<path d="M31.6117 5.06855L29.9867 3.80145L28.3617 5.06855C27.4867 5.65684 9.98666 19.4591 9.98666 31.6775C9.98666 36.4783 12.0938 41.0824 15.8445 44.4771C19.5953 47.8717 24.6823 49.7788 29.9867 49.7788C35.291 49.7788 40.3781 47.8717 44.1288 44.4771C47.8795 41.0824 49.9867 36.4783 49.9867 31.6775C49.9867 19.4591 32.4867 5.65684 31.6117 5.06855ZM35.5617 41.7916L33.3367 37.7414C34.582 37.1787 35.6297 36.3135 36.3626 35.2426C37.0956 34.1716 37.4848 32.9372 37.4867 31.6775H42.4867C42.4843 33.7791 41.8351 35.8386 40.6119 37.6251C39.3888 39.4115 37.64 40.8543 35.5617 41.7916Z" fill="white"/>
</svg>
