<svg width="65" height="60" viewBox="0 0 65 60" fill="none" xmlns="http://www.w3.org/2000/svg">
<path d="M32.5 3.125C33.6218 3.125 34.5313 3.96447 34.5313 5V7.5C34.5313 8.53553 33.6218 9.375 32.5 9.375C31.3782 9.375 30.4688 8.53553 30.4688 7.5V5C30.4688 3.96447 31.3782 3.125 32.5 3.125Z" fill="white"/>
<path d="M32.5 15.625C23.8993 15.625 16.9271 22.0609 16.9271 30C16.9271 37.9391 23.8993 44.375 32.5 44.375C41.1007 44.375 48.0729 37.9391 48.0729 30C48.0729 22.0609 41.1007 15.625 32.5 15.625Z" fill="white"/>
<path d="M14.7856 10.9966C13.9923 10.2643 12.7062 10.2643 11.9129 10.9966C11.1197 11.7288 11.1197 12.916 11.9129 13.6482L13.828 15.416C14.6213 16.1482 15.9074 16.1482 16.7006 15.416C17.4939 14.6837 17.4939 13.4966 16.7006 12.7643L14.7856 10.9966Z" fill="white"/>
<path d="M61.6146 30C61.6146 31.0355 60.7052 31.875 59.5834 31.875H56.875C55.7532 31.875 54.8438 31.0355 54.8438 30C54.8438 28.9645 55.7532 28.125 56.875 28.125H59.5834C60.7052 28.125 61.6146 28.9645 61.6146 30Z" fill="white"/>
<path d="M53.0871 13.6482C53.8803 12.916 53.8803 11.7288 53.0871 10.9965C52.2938 10.2643 51.0077 10.2643 50.2145 10.9965L48.2994 12.7643C47.5061 13.4965 47.5061 14.6837 48.2994 15.416C49.0926 16.1482 50.3787 16.1482 51.172 15.416L53.0871 13.6482Z" fill="white"/>
<path d="M32.5 50.625C33.6218 50.625 34.5313 51.4645 34.5313 52.5V55C34.5313 56.0355 33.6218 56.875 32.5 56.875C31.3782 56.875 30.4688 56.0355 30.4688 55V52.5C30.4688 51.4645 31.3782 50.625 32.5 50.625Z" fill="white"/>
<path d="M51.1722 44.5841C50.3789 43.8518 49.0928 43.8518 48.2996 44.5841C47.5063 45.3163 47.5063 46.5035 48.2996 47.2357L50.2146 49.0035C51.0079 49.7357 52.294 49.7357 53.0873 49.0035C53.8805 48.2712 53.8805 47.0841 53.0873 46.3518L51.1722 44.5841Z" fill="white"/>
<path d="M10.1563 30C10.1563 31.0355 9.24685 31.875 8.12502 31.875H5.41669C4.29486 31.875 3.38544 31.0355 3.38544 30C3.38544 28.9645 4.29486 28.125 5.41669 28.125H8.12502C9.24685 28.125 10.1563 28.9645 10.1563 30Z" fill="white"/>
<path d="M16.7005 47.2357C17.4937 46.5035 17.4937 45.3163 16.7005 44.584C15.9072 43.8518 14.6211 43.8518 13.8278 44.584L11.9128 46.3518C11.1195 47.084 11.1195 48.2712 11.9128 49.0035C12.706 49.7357 13.9921 49.7357 14.7854 49.0035L16.7005 47.2357Z" fill="white"/>
</svg>
