<svg width="59" height="60" viewBox="0 0 59 60" fill="none" xmlns="http://www.w3.org/2000/svg">
<path fill-rule="evenodd" clip-rule="evenodd" d="M50.4016 29.5912C50.4016 18.0151 41.0452 8.63082 29.5035 8.63082C17.9618 8.63082 8.60548 18.0151 8.60548 29.5912C8.60548 41.1673 17.9618 50.5516 29.5035 50.5516C41.0452 50.5516 50.4016 41.1673 50.4016 29.5912ZM27.6596 17.2616C27.6596 16.2402 28.4851 15.4121 29.5035 15.4121C30.5219 15.4121 31.3475 16.2402 31.3475 17.2616V29.5912C31.3475 30.2289 31.0199 30.8216 30.4808 31.1596L23.105 35.7832C22.2414 36.3245 21.1038 36.0612 20.5641 35.1951C20.0243 34.3289 20.2869 33.1879 21.1504 32.6465L27.6596 28.5662V17.2616Z" fill="white"/>
</svg>
