<svg width="17" height="17" viewBox="0 0 17 17" fill="none" xmlns="http://www.w3.org/2000/svg">
<path d="M12.3745 2.85136L10.6107 4.20385L11.2451 6.33716L9.4116 5.0753L7.57807 6.33716L8.21249 4.20385L6.44868 2.85136L8.67261 2.78862L9.4116 0.697144L10.1506 2.78862L12.3745 2.85136ZM14.8146 7.66873L13.6712 8.54018L14.0826 9.92055L12.8974 9.10488L11.7122 9.92055L12.1235 8.54018L10.9802 7.66873L12.4164 7.63387L12.8974 6.27441L13.3784 7.63387L14.8146 7.66873ZM13.2251 11.1197C13.8037 11.0639 14.4242 11.8865 14.0547 12.4094C13.8316 12.7231 13.5946 13.0159 13.3017 13.2948C10.5759 16.0346 6.16284 16.0346 3.44392 13.2948C0.718033 10.5759 0.718033 6.1559 3.44392 3.43698C3.72279 3.15811 4.01559 2.90714 4.32931 2.68405C4.85218 2.31455 5.67483 2.93502 5.61906 3.51366C5.43083 5.50754 6.1001 7.5781 7.63385 9.10488C9.16062 10.6386 11.2242 11.3079 13.2251 11.1197Z" fill="white"/>
</svg>
