<svg width="17" height="17" viewBox="0 0 17 17" fill="none" xmlns="http://www.w3.org/2000/svg">
<path d="M10.4635 11.8517H12.5488C14.0889 11.8517 15.3375 10.6032 15.3375 9.06305C15.3375 7.75507 14.437 6.65742 13.2221 6.35623C13.2379 6.21494 13.246 6.07134 13.246 5.92583C13.246 3.80817 11.5293 2.09146 9.41161 2.09146C7.65516 2.09146 6.17455 3.27247 5.72055 4.88371C5.67308 4.88131 5.6253 4.8801 5.57724 4.8801C4.03712 4.8801 2.7886 6.12861 2.7886 7.66873C2.7886 7.70831 2.78943 7.7477 2.79106 7.78687C1.97745 8.07329 1.39429 8.84865 1.39429 9.76021C1.39429 10.9153 2.33067 11.8517 3.48576 11.8517H5.47144L8.45773 6.62568C8.81242 6.00497 9.76019 6.25666 9.76019 6.97157V9.76021H10.4573C10.9926 9.76021 11.3282 10.3385 11.0627 10.8033L10.4635 11.8517Z" fill="white"/>
<path d="M6.2744 11.8517L9.06303 6.97157V10.4574H10.4573L7.66872 15.3375V11.8517H6.2744Z" fill="white"/>
</svg>
