<svg width="35" height="35" viewBox="0 0 35 35" fill="none" xmlns="http://www.w3.org/2000/svg">
<path fill-rule="evenodd" clip-rule="evenodd" d="M4.61169 17.0278C4.61169 10.1706 10.1706 4.61169 17.0278 4.61169C23.885 4.61169 29.4439 10.1706 29.4439 17.0278C29.4439 23.885 23.885 29.4439 17.0278 29.4439C10.1706 29.4439 4.61169 23.885 4.61169 17.0278ZM15.3957 13.209C14.071 14.2988 13.186 15.8317 12.9045 17.5238L11.9726 23.1261C11.7575 24.4195 13.2614 25.2877 14.2739 24.4547L18.6597 20.8466C19.9844 19.7567 20.8694 18.2239 21.1509 16.5317L22.0827 10.9294C22.2979 9.63606 20.794 8.7678 19.7815 9.60079L15.3957 13.209Z" fill="#C4C3C1"/>
<path d="M14.8993 17.0278C14.8993 15.8523 15.8523 14.8993 17.0278 14.8993C18.2033 14.8993 19.1563 15.8523 19.1563 17.0278C19.1563 18.2033 18.2033 19.1563 17.0278 19.1563C15.8523 19.1563 14.8993 18.2033 14.8993 17.0278Z" fill="#C4C3C1"/>
</svg>
