<svg width="95" height="86" viewBox="0 0 95 86" fill="none" xmlns="http://www.w3.org/2000/svg">
<g clip-path="url(#clip0_2_180)">
<path d="M12.2972 7.64445L13.3264 8.57611C14.3556 9.48389 14.3556 11.0128 13.3264 11.9206L13.3 11.9444C12.2708 12.8761 10.6347 12.8761 9.60556 11.9444L8.57639 11.0128C7.54722 10.105 7.54722 8.6 8.57639 7.66833L8.60278 7.64445C9.60556 6.73667 11.2681 6.71278 12.2972 7.64445Z" fill="white"/>
<path d="M2.6125 23.7694H5.30417C6.75556 23.7694 7.91667 24.8206 7.91667 26.1583V26.1822C7.91667 27.4961 6.75556 28.5472 5.27778 28.5233H2.6125C1.16111 28.5233 0 27.4722 0 26.1583V26.1344C0 24.8206 1.16111 23.7694 2.6125 23.7694Z" fill="white"/>
<path d="M29.0278 0H29.0542C30.5056 0 31.6667 1.05111 31.6667 2.365V4.68222C31.6667 5.99611 30.5056 7.04722 29.0278 7.02333H29.0014C27.55 7.02333 26.3889 5.97222 26.3889 4.65833V2.365C26.3889 1.05111 27.55 0 29.0278 0Z" fill="white"/>
<path d="M45.7583 7.64445C46.7875 6.73667 48.45 6.73667 49.4792 7.66833C50.5083 8.6 50.5083 10.0811 49.4792 11.0128L48.45 11.9444C47.4472 12.8761 45.7847 12.8761 44.7556 11.9444L44.7292 11.9206C43.7 11.0128 43.7 9.50778 44.7292 8.57611L45.7583 7.64445Z" fill="white"/>
<path d="M13.1944 26.1583C13.1944 18.2511 20.2931 11.825 29.0278 11.825C35.0233 11.825 40.2479 14.8526 42.9352 19.3087C39.8713 21.775 37.5818 25.0127 36.4387 28.6853C36.1692 28.6729 35.8979 28.6667 35.625 28.6667C28.6903 28.6667 22.7969 32.7025 20.6545 38.321C16.177 35.787 13.1944 31.2838 13.1944 26.1583Z" fill="white"/>
<path d="M12.2972 44.6483C11.2681 45.58 9.60556 45.58 8.57639 44.6483C7.54722 43.7167 7.54722 42.2356 8.55 41.28L9.57917 40.3483C10.6083 39.4167 12.2708 39.4167 13.3 40.3483L13.3264 40.3722C14.3292 41.28 14.3556 42.785 13.3264 43.7167L12.2972 44.6483Z" fill="white"/>
<path d="M79.1667 68.0833H27.7083C21.15 68.0833 15.8333 63.2704 15.8333 57.3333C15.8333 52.648 19.1444 48.6628 23.764 47.1906C23.7547 46.9892 23.75 46.7868 23.75 46.5833C23.75 38.6673 30.8388 32.25 39.5833 32.25C39.8562 32.25 40.1275 32.2563 40.397 32.2686C42.9748 23.9869 51.3814 17.9167 61.3542 17.9167C73.3779 17.9167 83.125 26.7404 83.125 37.625C83.125 38.3729 83.079 39.111 82.9894 39.8372C89.8871 41.3853 95 47.0271 95 53.75C95 61.6661 87.9112 68.0833 79.1667 68.0833Z" fill="white"/>
<path d="M39.5256 82.5212L44.7869 72.9954C45.2367 72.1811 46.1562 71.6667 47.1619 71.6667C49.1358 71.6667 50.4197 73.5472 49.5369 75.1454L44.2756 84.6712C43.8258 85.4856 42.9063 86 41.9006 86C39.9267 86 38.6428 84.1195 39.5256 82.5212Z" fill="white"/>
<path d="M51.4006 82.5212L56.6619 72.9954C57.1117 72.1811 58.0312 71.6667 59.0369 71.6667C61.0108 71.6667 62.2947 73.5472 61.4119 75.1454L56.1506 84.6712C55.7008 85.4856 54.7813 86 53.7756 86C51.8017 86 50.5178 84.1195 51.4006 82.5212Z" fill="white"/>
</g>
<defs>
<clipPath id="clip0_2_180">
<rect width="95" height="86" fill="white"/>
</clipPath>
</defs>
</svg>
