<svg width="60" height="42" viewBox="0 0 60 42" fill="none" xmlns="http://www.w3.org/2000/svg">
<path d="M8.41667 5.29053L7.76667 4.71579C7.11667 4.14105 6.06667 4.15579 5.43333 4.71579L5.41667 4.73053C4.76667 5.30526 4.76667 6.23368 5.41667 6.79368L6.06667 7.36842C6.71667 7.94316 7.75 7.94316 8.4 7.36842L8.41667 7.35368C9.06667 6.79368 9.06667 5.85053 8.41667 5.29053Z" fill="white"/>
<path d="M3.35 14.6632H1.65C0.733333 14.6632 0 15.3116 0 16.1221V16.1368C0 16.9474 0.733333 17.5958 1.65 17.5958H3.33333C4.26667 17.6105 5 16.9621 5 16.1516V16.1368C5 15.3116 4.26667 14.6632 3.35 14.6632Z" fill="white"/>
<path d="M18.35 0H18.3333C17.4 0 16.6667 0.648421 16.6667 1.45895V2.87368C16.6667 3.68421 17.4 4.33263 18.3167 4.33263H18.3333C19.2667 4.34737 20 3.69895 20 2.88842V1.45895C20 0.648421 19.2667 0 18.35 0Z" fill="white"/>
<path d="M31.25 4.73053C30.6 4.15579 29.55 4.15579 28.9 4.71579L28.25 5.29053C27.6 5.86526 27.6 6.79368 28.25 7.35368L28.2667 7.36842C28.9167 7.94316 29.9667 7.94316 30.6 7.36842L31.25 6.79368C31.9 6.21895 31.9 5.30526 31.25 4.73053Z" fill="white"/>
<path d="M18.3333 7.29474C12.8167 7.29474 8.33333 11.2589 8.33333 16.1368C8.33333 19.2987 10.2171 22.0767 13.0449 23.6399C14.3981 20.1739 18.1202 17.6842 22.5 17.6842C22.6724 17.6842 22.8437 17.6881 23.0139 17.6957C23.7359 15.4301 25.1818 13.4328 27.117 11.9113C25.4197 9.16245 22.12 7.29474 18.3333 7.29474Z" fill="white"/>
<path d="M5.41667 27.5432C6.06667 28.1179 7.11667 28.1179 7.76667 27.5432L8.41667 26.9684C9.06667 26.3937 9.05 25.4653 8.41667 24.9053L8.4 24.8905C7.75 24.3158 6.7 24.3158 6.05 24.8905L5.4 25.4653C4.76667 26.0547 4.76667 26.9684 5.41667 27.5432Z" fill="white"/>
<path d="M17.5 42H50C55.5228 42 60 38.0413 60 33.1579C60 29.0106 56.7708 25.5302 52.4143 24.5752C52.4709 24.1272 52.5 23.6719 52.5 23.2105C52.5 16.4959 46.3439 11.0526 38.75 11.0526C32.4514 11.0526 27.142 14.7973 25.5139 19.9062C25.3437 19.8986 25.1724 19.8947 25 19.8947C19.4772 19.8947 15 23.8535 15 28.7368C15 28.8623 15.003 28.9872 15.0088 29.1114C12.0912 30.0196 10 32.4781 10 35.3684C10 39.0309 13.3579 42 17.5 42Z" fill="white"/>
</svg>
