<svg width="60" height="57" viewBox="0 0 60 57" fill="none" xmlns="http://www.w3.org/2000/svg">
<path d="M15.1307 10.7927L14.1552 9.87476C13.1798 8.95682 11.6041 8.98036 10.6536 9.87476L10.6286 9.89829C9.65319 10.8162 9.65319 12.299 10.6286 13.1934L11.6041 14.1114C12.5795 15.0293 14.1302 15.0293 15.1057 14.1114L15.1307 14.0878C16.1061 13.1934 16.1061 11.6871 15.1307 10.7927ZM7.52722 25.7621H4.97606C3.60044 25.7621 2.49994 26.7977 2.49994 28.0922V28.1158C2.49994 29.4103 3.60044 30.4459 4.97606 30.4459H7.50221C8.90285 30.4694 10.0034 29.4338 10.0034 28.1393V28.1158C10.0034 26.7977 8.90285 25.7621 7.52722 25.7621ZM30.0375 2.34299H30.0124C28.6118 2.34299 27.5113 3.37861 27.5113 4.67313V6.93266C27.5113 8.22718 28.6118 9.2628 29.9874 9.2628H30.0124C31.4131 9.28634 32.5136 8.25072 32.5136 6.9562V4.67313C32.5136 3.37861 31.4131 2.34299 30.0375 2.34299ZM49.3963 9.89829C48.4208 8.98036 46.8451 8.98036 45.8697 9.87476L44.8942 10.7927C43.9188 11.7106 43.9188 13.1934 44.8942 14.0878L44.9192 14.1114C45.8947 15.0293 47.4704 15.0293 48.4208 14.1114L49.3963 13.1934C50.3717 12.2755 50.3717 10.8162 49.3963 9.89829ZM44.8692 45.4388L45.8446 46.3568C46.8201 47.2747 48.3958 47.2747 49.3712 46.3568C50.3467 45.4388 50.3467 43.956 49.3712 43.0381L48.3958 42.1201C47.4204 41.2022 45.8446 41.2257 44.8942 42.1201C43.8938 43.0616 43.8938 44.5209 44.8692 45.4388ZM50.0215 28.0922V28.1158C50.0215 29.4103 51.122 30.4459 52.4977 30.4459H55.0238C56.3994 30.4459 57.4999 29.4103 57.4999 28.1158V28.0922C57.4999 26.7977 56.3994 25.7621 55.0238 25.7621H52.4977C51.122 25.7621 50.0215 26.7977 50.0215 28.0922ZM30.0124 13.9937C21.7337 13.9937 15.0056 20.3251 15.0056 28.1158C15.0056 35.9064 21.7337 42.2378 30.0124 42.2378C38.2912 42.2378 45.0193 35.9064 45.0193 28.1158C45.0193 20.3251 38.2912 13.9937 30.0124 13.9937ZM29.9874 53.8885H30.0124C31.3881 53.8885 32.4886 52.8529 32.4886 51.5584V49.2989C32.4886 48.0043 31.3881 46.9687 30.0124 46.9687H29.9874C28.6118 46.9687 27.5113 48.0043 27.5113 49.2989V51.5584C27.5113 52.8529 28.6118 53.8885 29.9874 53.8885ZM10.6286 46.3332C11.6041 47.2512 13.1798 47.2512 14.1552 46.3332L15.1307 45.4153C16.1061 44.4974 16.0811 43.0145 15.1307 42.1201L15.1057 42.0966C14.1302 41.1787 12.5545 41.1787 11.5791 42.0966L10.6036 43.0145C9.65319 43.956 9.65319 45.4153 10.6286 46.3332Z" fill="white"/>
</svg>
