<svg width="60" height="57" viewBox="0 0 60 57" fill="none" xmlns="http://www.w3.org/2000/svg">
<path d="M12.5 39.8306H45C50.5229 39.8306 55 35.6347 55 30.4587C55 26.0629 51.7708 22.374 47.4143 21.3618C47.4709 20.887 47.5 20.4043 47.5 19.9153C47.5 12.7984 41.3439 7.02893 33.75 7.02893C27.4514 7.02893 22.142 10.998 20.5139 16.413C20.3437 16.4049 20.1724 16.4008 20 16.4008C14.4772 16.4008 10 20.5968 10 25.7728C10 25.9058 10.003 26.0382 10.0088 26.1698C7.09123 27.1324 5 29.7382 5 32.8017C5 36.6837 8.35786 39.8306 12.5 39.8306Z" fill="white"/>
<path d="M18.5365 42.1736C17.9013 42.1736 17.3206 42.51 17.0365 43.0424L13.7135 49.2709C13.156 50.316 13.9668 51.5455 15.2135 51.5455C15.8487 51.5455 16.4294 51.2092 16.7135 50.6767L20.0365 44.4482C20.594 43.4032 19.7832 42.1736 18.5365 42.1736Z" fill="white"/>
<path d="M26.0365 42.1736C27.2832 42.1736 28.094 43.4032 27.5365 44.4482L24.2135 50.6767C23.9294 51.2092 23.3487 51.5455 22.7135 51.5455C21.4668 51.5455 20.656 50.316 21.2135 49.2709L24.5365 43.0424C24.8206 42.51 25.4013 42.1736 26.0365 42.1736Z" fill="white"/>
<path d="M41.0365 42.1736C42.2832 42.1736 43.094 43.4032 42.5365 44.4482L39.2135 50.6767C38.9294 51.2092 38.3488 51.5455 37.7135 51.5455C36.4668 51.5455 35.656 50.316 36.2135 49.2709L39.5365 43.0424C39.8206 42.51 40.4013 42.1736 41.0365 42.1736Z" fill="white"/>
<path d="M33.5365 42.1736C34.7832 42.1736 35.594 43.4032 35.0365 44.4482L31.7135 50.6767C31.4294 51.2092 30.8487 51.5455 30.2135 51.5455C28.9668 51.5455 28.156 50.316 28.7135 49.2709L32.0365 43.0424C32.3206 42.51 32.9013 42.1736 33.5365 42.1736Z" fill="white"/>
</svg>
