<svg width="60" height="50" viewBox="0 0 60 50" fill="none" xmlns="http://www.w3.org/2000/svg">
<path d="M7.76667 4.44445L8.41667 4.98611C9.06667 5.51389 9.06667 6.40278 8.41667 6.93056L8.4 6.94445C7.75 7.48611 6.71667 7.48611 6.06667 6.94445L5.41667 6.40278C4.76667 5.875 4.76667 5 5.41667 4.45833L5.43333 4.44445C6.06667 3.91667 7.11667 3.90278 7.76667 4.44445Z" fill="white"/>
<path d="M1.65 13.8194H3.35C4.26667 13.8194 5 14.4306 5 15.2083V15.2222C5 15.9861 4.26667 16.5972 3.33333 16.5833H1.65C0.733333 16.5833 0 15.9722 0 15.2083V15.1944C0 14.4306 0.733333 13.8194 1.65 13.8194Z" fill="white"/>
<path d="M18.3333 0H18.35C19.2667 0 20 0.611111 20 1.375V2.72222C20 3.48611 19.2667 4.09722 18.3333 4.08333H18.3167C17.4 4.08333 16.6667 3.47222 16.6667 2.70833V1.375C16.6667 0.611111 17.4 0 18.3333 0Z" fill="white"/>
<path d="M28.9 4.44445C29.55 3.91667 30.6 3.91667 31.25 4.45833C31.9 5 31.9 5.86111 31.25 6.40278L30.6 6.94445C29.9667 7.48611 28.9167 7.48611 28.2667 6.94445L28.25 6.93056C27.6 6.40278 27.6 5.52778 28.25 4.98611L28.9 4.44445Z" fill="white"/>
<path d="M8.33333 15.2083C8.33333 10.6111 12.8167 6.875 18.3333 6.875C22.12 6.875 25.4197 8.63524 27.117 11.226C25.1818 12.6599 23.7359 14.5423 23.0139 16.6775C22.8437 16.6703 22.6724 16.6667 22.5 16.6667C18.1202 16.6667 14.3981 19.0131 13.0449 22.2797C10.2171 20.8064 8.33333 18.1883 8.33333 15.2083Z" fill="white"/>
<path d="M7.76667 25.9583C7.11667 26.5 6.06667 26.5 5.41667 25.9583C4.76667 25.4167 4.76667 24.5556 5.4 24L6.05 23.4583C6.7 22.9167 7.75 22.9167 8.4 23.4583L8.41667 23.4722C9.05 24 9.06667 24.875 8.41667 25.4167L7.76667 25.9583Z" fill="white"/>
<path d="M50 39.5833H17.5C13.3579 39.5833 10 36.7851 10 33.3333C10 30.6093 12.0912 28.2923 15.0088 27.4364C15.003 27.3193 15 27.2016 15 27.0833C15 22.481 19.4772 18.75 25 18.75C25.1724 18.75 25.3437 18.7536 25.5139 18.7608C27.142 13.9459 32.4514 10.4167 38.75 10.4167C46.3439 10.4167 52.5 15.5467 52.5 21.875C52.5 22.3098 52.4709 22.739 52.4143 23.1612C56.7708 24.0612 60 27.3413 60 31.25C60 35.8524 55.5228 39.5833 50 39.5833Z" fill="white"/>
<path d="M24.9635 47.9775L28.2865 42.4392C28.5706 41.9657 29.1513 41.6667 29.7865 41.6667C31.0332 41.6667 31.844 42.76 31.2865 43.6892L27.9635 49.2275C27.6794 49.7009 27.0987 50 26.4635 50C25.2168 50 24.406 48.9067 24.9635 47.9775Z" fill="white"/>
<path d="M32.4635 47.9775L35.7865 42.4392C36.0706 41.9657 36.6513 41.6667 37.2865 41.6667C38.5332 41.6667 39.344 42.76 38.7865 43.6892L35.4635 49.2275C35.1794 49.7009 34.5987 50 33.9635 50C32.7168 50 31.906 48.9067 32.4635 47.9775Z" fill="white"/>
</svg>
